# xmcd
#
# Track frame offsets: 
#        150
#        15705
#        28115
#        44073
#        64352
#        81081
#        94428
#        112941
#        127614
#
# Disc length: 1900 seconds
#
# Revision: 0
# Processed by: cddbd v1.5.2PL0 Copyright (c) Steve Scherf et al.
# Submitted via: ExactAudioCopy v0.99pb5
#
DISCID=73076a09
DTITLE=Michael Packer Blues Band - Free Beer
DYEAR=2008
DGENRE=Blues
TTITLE0=Eve Of Destruction 2008
TTITLE1=Jail House Now
TTITLE2=Don't You Lie
TTITLE3=Depression Blues
TTITLE4=Come On Honey
TTITLE5=Back In Albany
TTITLE6=E- Blues
TTITLE7=The Letdown
TTITLE8=Salvation
EXTD=
EXTT0=
EXTT1=
EXTT2=
EXTT3=
EXTT4=
EXTT5=
EXTT6=
EXTT7=
EXTT8=
PLAYORDER=
